<svg width="25" height="25" viewBox="0 0 25 25" fill="none" xmlns="http://www.w3.org/2000/svg">
<path d="M21.4435 13.1232C21.2862 14.8254 20.6474 16.4476 19.6018 17.8C18.5561 19.1524 17.147 20.179 15.5392 20.7597C13.9314 21.3405 12.1915 21.4513 10.523 21.0793C8.85452 20.7073 7.3265 19.8677 6.11773 18.659C4.90896 17.4502 4.06944 15.9222 3.69741 14.2537C3.32538 12.5852 3.43622 10.8453 4.01696 9.23749C4.59771 7.6297 5.62434 6.22056 6.97672 5.17494C8.3291 4.12933 9.9513 3.4905 11.6535 3.33319C10.6569 4.68146 10.1774 6.34264 10.302 8.01461C10.4267 9.68657 11.1474 11.2582 12.3329 12.4438C13.5184 13.6293 15.0901 14.35 16.7621 14.4747C18.4341 14.5993 20.0952 14.1198 21.4435 13.1232Z" stroke="black" stroke-width="2" stroke-linecap="round" stroke-linejoin="round"/>
</svg>
