<svg width="33" height="33" viewBox="0 0 33 33" fill="none" xmlns="http://www.w3.org/2000/svg">
<path d="M4.27631 8.84314H6.94297H28.2763" stroke="black" stroke-width="2" stroke-linecap="round" stroke-linejoin="round"/>
<path d="M25.6097 8.8431V27.5098C25.6097 28.217 25.3287 28.8953 24.8286 29.3954C24.3285 29.8955 23.6502 30.1764 22.943 30.1764H9.60966C8.90242 30.1764 8.22414 29.8955 7.72404 29.3954C7.22394 28.8953 6.94299 28.217 6.94299 27.5098V8.8431M10.943 8.8431V6.17643C10.943 5.46919 11.2239 4.79091 11.724 4.29081C12.2241 3.79072 12.9024 3.50977 13.6097 3.50977H18.943C19.6502 3.50977 20.3285 3.79072 20.8286 4.29081C21.3287 4.79091 21.6097 5.46919 21.6097 6.17643V8.8431" stroke="black" stroke-width="2" stroke-linecap="round" stroke-linejoin="round"/>
<path d="M13.6096 15.5098V23.5098" stroke="black" stroke-width="2" stroke-linecap="round" stroke-linejoin="round"/>
<path d="M18.943 15.5098V23.5098" stroke="black" stroke-width="2" stroke-linecap="round" stroke-linejoin="round"/>
</svg>
