<svg width="109" height="101" viewBox="0 0 109 101" fill="none" xmlns="http://www.w3.org/2000/svg">
<path fill-rule="evenodd" clip-rule="evenodd" d="M55.1375 94.2541C75.9355 94.2541 93.2285 78.878 96.3138 58.7282H13.9611C17.0464 78.878 34.3394 94.2541 55.1375 94.2541ZM7.43577 58.7282C7.15609 56.6151 7.01172 54.459 7.01172 52.2689H103.263C103.263 54.459 103.119 56.6151 102.839 58.7282C99.702 82.4295 79.5409 100.713 55.1375 100.713C30.734 100.713 10.5729 82.4295 7.43577 58.7282Z" fill="black"/>
<path d="M17.2104 70.1169H58.6432" stroke="black" stroke-width="3.82456" stroke-linecap="round"/>
<path d="M49.0818 81.5906L88.6023 81.5906" stroke="black" stroke-width="3.82456" stroke-linecap="round"/>
<mask id="mask0_67_441" style="mask-type:alpha" maskUnits="userSpaceOnUse" x="0" y="0" width="109" height="55">
<rect width="109" height="54.1813" transform="matrix(1 0 0 -1 0 54.1813)" fill="#C4C4C4"/>
</mask>
<g mask="url(#mask0_67_441)">
<path d="M61.5171 5.73651C75.6877 5.73655 87.4358 17.1241 88.4995 31.4289C96.6742 33.8186 102.625 41.7174 102.625 50.5041C102.625 61.3126 93.9196 70.1172 83.2046 70.1174H67.895C67.7117 70.1174 67.5379 70.1057 67.3745 70.093V70.0939L67.2231 70.0842L67.189 70.0891L67.1724 70.092L67.1558 70.093C66.9865 70.1061 66.8069 70.1174 66.6206 70.1174H28.3462C16.9267 70.1171 7.64893 60.7332 7.64893 49.2131C7.64898 41.6144 12.0794 34.0439 18.5864 30.2814C18.5834 30.2019 18.5815 30.1204 18.5815 30.0383C18.5818 21.8627 25.1652 15.2023 33.2739 15.2023C33.8351 15.2023 34.384 15.2406 34.9204 15.301H34.9194C35.0903 15.3196 35.3068 15.3608 35.4155 15.3771H35.4175C35.7863 15.4333 36.1632 15.4977 36.5366 15.5832H36.5356C36.7337 15.6281 36.9299 15.6833 37.1001 15.7297H37.1011C37.442 15.8232 37.7788 15.9274 38.1118 16.0451H38.1108L38.6714 16.2531L38.6743 16.2541C38.97 16.3736 39.2581 16.5044 39.5396 16.6398C44.765 9.87041 53.0025 5.73651 61.5171 5.73651ZM61.5171 10.1672C54.5804 10.1672 47.5901 13.6273 43.2007 19.1213C46.1244 21.8331 47.9662 25.7197 47.9663 30.0383C47.9663 31.2566 46.9888 32.2541 45.7671 32.2541C44.5455 32.254 43.5679 31.2565 43.5679 30.0383C43.5677 26.3784 41.6837 23.1599 38.8472 21.3039C38.5186 21.0889 38.1749 20.8955 37.8188 20.717V20.718C37.6964 20.6579 37.607 20.612 37.5073 20.5666L37.5044 20.5646C37.1002 20.3785 36.6938 20.217 36.2827 20.09C36.2722 20.0872 36.2584 20.084 36.2349 20.0783C36.2095 20.0722 36.1684 20.0614 36.1255 20.049H36.1226C35.7449 19.9386 35.3595 19.8519 34.9653 19.7863H34.9624C34.8414 19.7657 34.731 19.7475 34.6235 19.7336L34.6216 19.7326C34.1661 19.6719 33.7195 19.633 33.2739 19.633C27.6056 19.633 22.9792 24.2963 22.979 30.0383L22.9966 30.3771L22.9976 30.3879H22.9966L23.0161 30.7189L23.0181 30.7551L23.0161 30.7902L23.0015 31.0432C22.9901 31.2559 22.979 31.4379 22.979 31.6164V33.0099L22.6187 33.1838L21.7339 33.6115C16.1357 36.3225 12.0474 42.8999 12.0474 49.2131C12.0474 58.3029 19.3656 65.6865 28.3462 65.6867H66.6206C66.6822 65.6867 66.7424 65.6814 66.8462 65.674L66.855 65.673L67.1646 65.6564L67.1948 65.6545L67.2261 65.6555L67.6489 65.673H67.6587L67.6675 65.674C67.7742 65.6814 67.8316 65.6867 67.895 65.6867H83.2046C91.4808 65.6865 98.2278 58.8806 98.228 50.5041C98.228 43.2135 92.9592 36.7213 86.0054 35.3791C85.6677 35.3325 82.2005 34.8784 78.8931 35.384L78.8921 35.383C78.7823 35.4004 78.6708 35.4103 78.561 35.4103C77.4865 35.4102 76.553 34.6192 76.3892 33.5266C76.2085 32.3241 77.0261 31.1902 78.2319 31.0051C80.3313 30.6823 82.4198 30.6809 83.9937 30.759C82.6417 19.188 73.0191 10.1672 61.5171 10.1672Z" fill="black" stroke="black" stroke-width="1.27485"/>
</g>
<path d="M66.9297 54.1813H82.8654V76.4912L74.8975 72.6667L66.9297 76.4912V54.1813Z" fill="black"/>
</svg>
