<svg width="32" height="32" viewBox="0 0 32 32" fill="none" xmlns="http://www.w3.org/2000/svg">
<path d="M16 18.6666C17.4728 18.6666 18.6667 17.4727 18.6667 16C18.6667 14.5272 17.4728 13.3333 16 13.3333C14.5273 13.3333 13.3334 14.5272 13.3334 16C13.3334 17.4727 14.5273 18.6666 16 18.6666Z" stroke="black" stroke-width="2" stroke-linecap="round" stroke-linejoin="round"/>
<path d="M21.6534 10.3466C22.3972 11.0896 22.9873 11.9719 23.3899 12.9431C23.7924 13.9143 23.9997 14.9553 23.9997 16.0066C23.9997 17.058 23.7924 18.099 23.3899 19.0702C22.9873 20.0413 22.3972 20.9237 21.6534 21.6666M10.3467 21.6533C9.6029 20.9103 9.01283 20.028 8.61023 19.0568C8.20764 18.0856 8.00042 17.0446 8.00042 15.9933C8.00042 14.942 8.20764 13.901 8.61023 12.9298C9.01283 11.9586 9.6029 11.0763 10.3467 10.3333M25.4267 6.5733C27.9263 9.07367 29.3305 12.4644 29.3305 16C29.3305 19.5355 27.9263 22.9263 25.4267 25.4266M6.57337 25.4266C4.07376 22.9263 2.66956 19.5355 2.66956 16C2.66956 12.4644 4.07376 9.07367 6.57337 6.5733" stroke="black" stroke-width="2" stroke-linecap="round" stroke-linejoin="round"/>
</svg>
