<svg width="25" height="25" viewBox="0 0 25 25" fill="none" xmlns="http://www.w3.org/2000/svg">
<g clip-path="url(#clip0_103_440)">
<path d="M12.5828 17.3332C15.3442 17.3332 17.5828 15.0946 17.5828 12.3332C17.5828 9.57177 15.3442 7.33319 12.5828 7.33319C9.82134 7.33319 7.58276 9.57177 7.58276 12.3332C7.58276 15.0946 9.82134 17.3332 12.5828 17.3332Z" stroke="black" stroke-width="2" stroke-linecap="round" stroke-linejoin="round"/>
<path d="M12.5828 1.33319V3.33319" stroke="black" stroke-width="2" stroke-linecap="round" stroke-linejoin="round"/>
<path d="M12.5828 21.3332V23.3332" stroke="black" stroke-width="2" stroke-linecap="round" stroke-linejoin="round"/>
<path d="M4.80273 4.55316L6.22273 5.97316" stroke="black" stroke-width="2" stroke-linecap="round" stroke-linejoin="round"/>
<path d="M18.9429 18.6932L20.3629 20.1132" stroke="black" stroke-width="2" stroke-linecap="round" stroke-linejoin="round"/>
<path d="M1.58276 12.3332H3.58276" stroke="black" stroke-width="2" stroke-linecap="round" stroke-linejoin="round"/>
<path d="M21.5828 12.3332H23.5828" stroke="black" stroke-width="2" stroke-linecap="round" stroke-linejoin="round"/>
<path d="M4.80273 20.1132L6.22273 18.6932" stroke="black" stroke-width="2" stroke-linecap="round" stroke-linejoin="round"/>
<path d="M18.9429 5.97316L20.3629 4.55316" stroke="black" stroke-width="2" stroke-linecap="round" stroke-linejoin="round"/>
</g>
<defs>
<clipPath id="clip0_103_440">
<rect width="24" height="24" fill="white" transform="translate(0.582764 0.333191)"/>
</clipPath>
</defs>
</svg>
