<svg width="25" height="24" viewBox="0 0 25 24" fill="none" xmlns="http://www.w3.org/2000/svg">
<path d="M17.2856 3C17.5483 2.73735 17.8601 2.52901 18.2033 2.38687C18.5464 2.24473 18.9142 2.17157 19.2856 2.17157C19.6571 2.17157 20.0249 2.24473 20.368 2.38687C20.7112 2.52901 21.023 2.73735 21.2856 3C21.5483 3.26264 21.7566 3.57444 21.8988 3.9176C22.0409 4.26077 22.1141 4.62856 22.1141 5C22.1141 5.37143 22.0409 5.73923 21.8988 6.08239C21.7566 6.42555 21.5483 6.73735 21.2856 7L7.78564 20.5L2.28564 22L3.78564 16.5L17.2856 3Z" stroke="black" stroke-width="2" stroke-linecap="round" stroke-linejoin="round"/>
</svg>
